<svg width="8" height="8" viewBox="0 0 8 8" fill="none" xmlns="http://www.w3.org/2000/svg">
<g clip-path="url(#clip0_50_25)">
<rect width="8" height="8" fill="white"/>
<path d="M7.74919 -4C7.80086 -1.4174 7.98816 0.695059 8.31109 2.33739C8.64693 3.97972 9.17653 5.41519 9.89989 6.64381C10.6233 7.85988 11.6566 9.07596 13 10.292L10.7137 13C9.20237 11.3075 8.04629 9.72161 7.24543 8.24226C6.45748 6.75037 5.87621 5.07043 5.50162 3.20243C5.13994 1.33444 4.90743 -1.06637 4.80409 -4H7.74919ZM-5 10.5365C-3.74704 9.15745 -2.79117 7.87242 -2.1324 6.68142C-1.47363 5.49041 -0.989236 4.11136 -0.679225 2.54425C-0.369214 0.977139 -0.16254 -1.08518 -0.0592031 -3.6427H2.84715C2.69214 -0.683997 2.45318 1.6604 2.13025 3.39049C1.80732 5.10804 1.27772 6.66888 0.541442 8.07301C-0.194833 9.4646 -1.30571 11.0505 -2.79117 12.8308L-5 10.5365Z" fill="black"/>
</g>
<defs>
<clipPath id="clip0_50_25">
<rect width="8" height="8" fill="white"/>
</clipPath>
</defs>
</svg>
